<?xml version="1.0" encoding="utf-8"?>
<!-- Generator: Adobe Illustrator 23.0.0, SVG Export Plug-In . SVG Version: 6.00 Build 0)  -->
<svg version="1.1" id="Capa_1" xmlns="http://www.w3.org/2000/svg" xmlns:xlink="http://www.w3.org/1999/xlink" x="0px" y="0px"
	 viewBox="0 0 500 800" style="enable-background:new 0 0 500 800;" xml:space="preserve">
<style type="text/css">
	.st0{fill:#F8B322;}
	.st1{fill:#DE0059;}
	.st2{fill:#B0B2CF;}
	.st3{fill:#FFFFFF;stroke:#211915;stroke-miterlimit:10;}
	.st4{fill:#003374;}
</style>
<path class="st0" d="M193.64,113.54l126.41,58.38c12,5.84,22.65,14.57,30.98,25.38c2.36,2.97,4.43,6.16,6.16,9.52l2.41-26.76
	c1.69-33.73-18.11-66.82-49.07-82.03L188.57,41.81c-11.87-4.88-22.46-13.01-30.54-23.44l-2.2,29.59
	c-1.64,15.78,2.98,32.18,12.83,45.6C175.4,102.13,184,109.01,193.64,113.54z"/>
<path class="st1" d="M396.2,209.51c2.63,7.53,3.32,15.6,2,23.46c-0.33,2.19-0.89,4.35-1.68,6.42l13.5-9.42
	c16.41-12.46,22.97-34.05,16.24-53.53l-28.18-75.27c-3.02-7.1-3.96-14.9-2.71-22.51l-14.72,10.61
	c-8.06,5.46-13.62,13.89-15.46,23.44c-0.98,6.3-0.35,12.74,1.84,18.73L396.2,209.51z"/>
<path class="st2" d="M290,637c-44.31-62.53-62.09-113.45-72-153c72,0,163.84-63.36,171-135c9-90-72-180-188.36-180L182,259
	c126,0,162,45,162,90c0,36-36,108-162,108c2.67,46.16,11.42,109.24,37.29,180c22.19,60.7,50.33,108.87,74.57,144
	c8.88,0,185.54,0,194.14,0C449.05,758.4,344.54,713.97,290,637z"/>
<path class="st3" d="M281,331"/>
<path class="st1" d="M420.08,367c-8.45,7.27-26.48,24.74-35.24,52.68c-3.53,11.26-4.8,21.8-4.83,31.06
	c-0.07,16.53,18,28.22,35.48,22.99l0,0c16.54-4.94,23.74-22.54,14.35-35.72c-3.72-5.22-7.14-11.32-9.76-18.34
	C417.6,413,410.81,391.93,420.08,367z"/>
<path class="st0" d="M390.95,268.21c4.9,8.58,11.09,22.6,14.75,38.75c3.99,17.6,1.57,31.09,0.59,41.36
	c7.52-3.36,20.09-7.83,36.18-8.26c20.91-0.56,36.87,5.99,44.81,9.92c-2.24-9.41-12.15-30.32-22.52-43.65
	C439.88,274.35,399.49,269.05,390.95,268.21z"/>
<rect x="11" y="727" class="st4" width="171" height="54"/>
<polygon class="st4" points="137,169 128,214 119,214 119,169 74,169 74,214 65,214 56,169 11,169 29,259 47,259 74,259 119,259 
	146,259 164,259 182,169 "/>
<path class="st4" d="M38,709h117c-12.24-62.72-22.47-135.23-27-216c-3.64-64.96-9-123.65-9-180h18v-36H56v36h18
	c0,56.35-5.36,115.04-9,180C60.47,573.77,50.24,646.28,38,709z"/>
<path class="st3" d="M236,286.81"/>
<path class="st4" d="M218,281.63c24.2,0.61,76.19,5.27,96.32,39.8c0.97,1.66,1.86,3.39,2.68,5.2c-19.74,17.37-45.79,20.43-63,9
	c-8.38-5.56-13.01-13.47-15.56-19.66c-1.5-3.67-2.05-7.63-1.98-11.59c0.03-1.49-0.1-3.08-0.47-4.75
	C233.24,287.14,219.42,282.12,218,281.63z"/>
</svg>
