<svg id="Capa_1" data-name="Capa 1" xmlns="http://www.w3.org/2000/svg" viewBox="0 0 441 198"><defs><style>.cls-1,.cls-2{fill:#0071bc;}.cls-2{font-size:70px;letter-spacing:0.04em;}.cls-2,.cls-4{font-family:CocogooseClassicTrial-ExtraBold, Cocogoose Classic Trial;font-weight:800;}.cls-3{letter-spacing:0em;}.cls-4{font-size:80px;}.cls-4,.cls-5{fill:#999;}.cls-6{fill:#ccc;}.cls-7{fill:#f2f2f2;}.cls-8{fill:#fff;}</style></defs><title>tracemail-logo</title><circle class="cls-1" cx="72" cy="153" r="9"/><circle class="cls-1" cx="108" cy="153" r="9"/><text class="cls-2" transform="translate(67.48 85.97)">R<tspan class="cls-3" x="47.4" y="0">A</tspan><tspan x="96.93" y="0">CE</tspan></text><text class="cls-4" transform="translate(297 174.11)">AIL</text><rect class="cls-5" x="144" y="99" width="144" height="99" rx="17.66"/><rect class="cls-1" x="45" y="144" width="108" height="18"/><rect class="cls-1" x="-4.5" y="103.5" width="153" height="18" rx="9" transform="translate(157.5 13.5) rotate(90)"/><rect class="cls-1" x="27" y="27" width="90" height="18" rx="9" transform="translate(117 45) rotate(180)"/><rect class="cls-6" x="153" y="153" width="126" height="36" rx="8.4"/><path class="cls-1" d="M242.74,181.93a7.39,7.39,0,0,1-3.41,4.43l-38.59,23.2-6.54,3.92-2.27,1.37c-4.87,2.93-11.1-.06-11.86-5.29a9.3,9.3,0,0,1-.07-1.07v-57c0-5.9,6.74-9.49,11.93-6.37l47.4,28.49A7.35,7.35,0,0,1,242.74,181.93Z" transform="translate(-27 -27)"/><path class="cls-7" d="M243.26,181.93a7.39,7.39,0,0,0,3.41,4.43l38.59,23.2,6.54,3.92,2.27,1.37c4.87,2.93,11.1-.06,11.86-5.29a9.3,9.3,0,0,0,.07-1.07v-57c0-5.9-6.74-9.49-11.93-6.37l-47.4,28.49A7.35,7.35,0,0,0,243.26,181.93Z" transform="translate(-27 -27)"/><polygon class="cls-8" points="171 108 261 108 216 135 171 108"/></svg>